<svg xmlns="http://www.w3.org/2000/svg" viewBox="0 0 120 120">
  <circle cx="60" cy="60" r="60" fill="#d9d9d9"/>
  <!-- face -->
  <ellipse cx="60" cy="72" rx="28" ry="30" fill="white" stroke="black" stroke-width="2.5"/>
  <!-- hair: casual messy -->
  <path d="M32 64 Q32 42 60 40 Q88 42 88 64 L86 56 Q80 40 60 38 Q40 40 34 56Z" fill="black"/>
  <!-- messy strands -->
  <path d="M54 40 Q52 34 56 38" stroke="black" stroke-width="3" fill="none" stroke-linecap="round"/>
  <path d="M62 39 Q64 32 67 38" stroke="black" stroke-width="3" fill="none" stroke-linecap="round"/>
  <path d="M46 42 Q44 36 48 41" stroke="black" stroke-width="2.5" fill="none" stroke-linecap="round"/>
  <!-- ears -->
  <ellipse cx="32" cy="72" rx="5" ry="6" fill="white" stroke="black" stroke-width="2"/>
  <ellipse cx="88" cy="72" rx="5" ry="6" fill="white" stroke="black" stroke-width="2"/>
  <!-- eyebrows: gentle, relaxed -->
  <path d="M44 62 Q51 59 57 62" stroke="black" stroke-width="2" fill="none" stroke-linecap="round"/>
  <path d="M63 62 Q69 59 76 62" stroke="black" stroke-width="2" fill="none" stroke-linecap="round"/>
  <!-- eyes: calm, soft -->
  <ellipse cx="50" cy="69" rx="6" ry="5.5" fill="white" stroke="black" stroke-width="2"/>
  <circle cx="51" cy="70" r="2.8" fill="black"/>
  <circle cx="52" cy="69" r="0.9" fill="white"/>
  <ellipse cx="70" cy="69" rx="6" ry="5.5" fill="white" stroke="black" stroke-width="2"/>
  <circle cx="71" cy="70" r="2.8" fill="black"/>
  <circle cx="72" cy="69" r="0.9" fill="white"/>
  <!-- nose -->
  <path d="M57 79 Q60 83 63 79" stroke="black" stroke-width="1.5" fill="none" stroke-linecap="round"/>
  <!-- mouth: gentle slight smile -->
  <path d="M52 87 Q60 92 68 87" stroke="black" stroke-width="2.5" fill="none" stroke-linecap="round"/>
</svg>
